<svg width="1440" height="663" viewBox="0 0 1440 663" fill="none" xmlns="http://www.w3.org/2000/svg"><g clip-path="url(#clip0)"><path d="M808.36 100.51a13.47 13.47 0 01-3.59-9.11c-.04-1.56.15-2.86-.94-3.31-1.1-.45-1.88.6-3 1.69a13.5 13.5 0 01-8.96 3.96c-1.52.1-2.83.07-3.24 1.08-.42 1 .53 1.9 1.55 3.04a13.47 13.47 0 013.58 9.11c.04 1.57-.15 2.87.95 3.32 1.1.45 1.87-.61 3-1.7a13.5 13.5 0 018.95-3.96c1.52-.09 2.83-.06 3.24-1.07.42-1.02-.52-1.92-1.54-3.05z" fill="#FA7B6A"/><path fill-rule="evenodd" clip-rule="evenodd" d="M752.35 117.7a186.3 186.3 0 0133.5-15.03l.56 1.71a184.65 184.65 0 00-33.16 14.88c-12.64 7.24-25.1 16.54-32.5 27.34l-1.5-1.02c7.65-11.13 20.38-20.59 33.1-27.88z" fill="#1C1C1C"/><path d="M1120.22 663h-595.9c28.23-32.1 65.14-58.03 102.44-70.83 58.23-19.99 117.16-7.46 181.45 6.2 23.14 4.92 46.97 9.99 71.7 13.74 20.89 3.01 42.42 5.12 63.93 7.23 64.85 6.36 129.61 12.71 176.38 43.66z" fill="#FA7B6A"/><path d="M662.2 622.87c-7.35 13.8-31.98 8.5-43.54 17.97-9.56 12.45 4.53 9.18 11.44 15.17 4.77 4.15 2.06 11.6-5.38 11.6-9.17 0-15.68-3.87-19.43-9.53a15.54 15.54 0 011.4-18.77c13.03-14.28 44.12-10.73 37.88-18.97-35.92 4.2-22.98-56.96-2.2-70.27-12.6-6.86-7.75-27.34 2.23-41.27 5.01-.59 6.15 10.57 6.49 12 3.49-3.1 11.1-3.45 14.13-.97 3.32-5.03 4.66-9.38 10.52-11.65 2.4-.92 3.2 11.49 2.92 18.24.5 7.9 2.16 18.46-5.88 23.07 6.48 16.74 1.32 25.22 3.3 34.81 1.39 6.7 5.25 20.1 1.82 24.95-3.53 10.26-11.86 6.31-15.7 13.62z" fill="#F6F6F1"/><path d="M638.69 634.07c9.7-1.7 19.36-3.4 23.5-11.2 1.73-3.27 4.34-4.29 7.02-5.33 3.32-1.3 6.74-2.62 8.69-8.3a7.9 7.9 0 001.22-3.47c-14.45 5.02-42.47-7.52-54.7-26.37-5.65 20.76-2.25 43.56 20.15 40.94 3 3.95-2.59 5.2-10.65 6.99-4.1.9-8.84 1.96-13.42 3.59 8.66.05 6.04 3.54 2.62 7.18 4.54-2.09 10.06-3.06 15.57-4.03zM632.25 659.13a19.13 19.13 0 00-2.12-3.03c-.7-.47-.75-.05-.86.76-.2 1.53-.59 4.45-5.9 5.33-12.9 2.9-17.76-3.46-20.14-8.85.4 1.67 1.1 3.28 2.06 4.74 3.75 5.66 11.25 8.81 18.44 8.14 5.16.6 9.32-3.38 8.52-7.09z" fill="#FA7B6A"/><path fill-rule="evenodd" clip-rule="evenodd" d="M644 508.36a.75.75 0 01.51-.3c1.59-.2 2.83.58 3.75 1.69a12.7 12.7 0 012.05 4.06c.68 2.05 1.08 4.3 1.3 5.66a14.17 14.17 0 016.67-2c2.46-.15 4.98.25 6.74 1.3.53-.83 1.01-1.65 1.49-2.45l.29-.5a38.75 38.75 0 012.13-3.3 14.05 14.05 0 016.54-5.04c.3-.11.61-.13.92-.04.3.1.54.27.72.47.36.38.63.93.85 1.53.43 1.22.76 2.96.99 4.9.47 3.85.6 8.66.46 12.07l.16 2.2c.25 3.39.54 7.17.1 10.67-.52 4.15-2.07 8.04-5.96 10.53a47.35 47.35 0 013.16 19.8c-.06 1.36-.15 2.67-.25 3.93v.1c-.1 1.23-.18 2.4-.23 3.56a27.8 27.8 0 00.43 6.95c.2.98.46 2.12.75 3.37.66 2.94 1.47 6.46 1.97 9.84.36 2.42.57 4.81.47 6.92-.1 2.05-.5 3.93-1.44 5.3a13 13 0 01-3.57 5.66 14.98 14.98 0 01-4.55 2.62l-.96.38c-2.7 1.05-5.05 1.97-6.63 4.98-3.87 7.26-12.24 9.42-20.71 11l-3.36.6c-3.18.55-6.32 1.1-9.3 1.88-3.97 1.03-7.53 2.43-10.29 4.66-2.34 3.06-3.08 4.98-3 6.22.05 1.1.8 1.88 2.32 2.58 1.03.48 2.25.87 3.6 1.29l2.17.7c2.17.74 4.46 1.7 6.3 3.3a7.07 7.07 0 012.09 8.21c-1.14 2.69-3.97 4.7-7.96 4.7-9.4 0-16.16-3.98-20.06-9.87a16.29 16.29 0 011.47-19.68c3.37-3.7 7.87-6.2 12.58-8.03 4.71-1.82 9.67-2.99 13.98-3.95l1.03-.23c3.9-.87 7.1-1.58 9.08-2.5 1.08-.51 1.6-1 1.77-1.44.13-.32.12-.79-.36-1.53-8.97.93-15.06-2.19-18.69-7.72-3.64-5.55-4.74-13.41-4.06-21.7a73.6 73.6 0 016.75-24.78c3.38-7.13 7.8-13.25 12.76-16.82-5.85-3.8-7.55-10.67-6.7-18.1.9-7.88 4.67-16.6 9.72-23.65zm1 1.17c-4.83 6.83-8.38 15.18-9.24 22.64-.86 7.57 1.05 14.02 6.96 17.24a.75.75 0 01.05 1.29c-5.03 3.22-9.66 9.4-13.2 16.88a72.1 72.1 0 00-6.62 24.25c-.66 8.14.44 15.61 3.83 20.76 3.33 5.08 8.97 8.02 17.7 7 .27-.03.53.08.7.3.84 1.12 1.2 2.24.8 3.32-.4 1-1.39 1.7-2.54 2.24-2.14 1-5.51 1.75-9.32 2.6l-1.1.24c-4.31.97-9.17 2.11-13.77 3.9-4.59 1.77-8.86 4.18-12.01 7.63a14.79 14.79 0 00-1.33 17.85c3.6 5.43 9.88 9.19 18.8 9.19 3.46 0 5.7-1.71 6.59-3.79.88-2.07.45-4.63-1.7-6.49-1.6-1.4-3.67-2.28-5.79-3a81.2 81.2 0 00-2-.66c-1.42-.44-2.8-.88-3.92-1.4-1.67-.77-3.09-1.9-3.2-3.86-.1-1.83.98-4.16 3.37-7.28a.74.74 0 01.12-.13c3.02-2.46 6.85-3.94 10.94-5 3.03-.79 6.27-1.36 9.46-1.92l3.3-.6c8.56-1.58 16.17-3.67 19.65-10.22 1.86-3.52 4.74-4.63 7.41-5.67l.95-.37c1.48-.6 2.87-1.26 4.11-2.36a11.57 11.57 0 003.19-5.1.77.77 0 01.1-.2c.73-1.03 1.12-2.6 1.22-4.6.1-1.97-.1-4.26-.46-6.63-.49-3.32-1.26-6.73-1.93-9.65-.29-1.27-.56-2.44-.77-3.48a29.3 29.3 0 01-.46-7.31c.05-1.18.14-2.38.23-3.6v-.11c.1-1.26.2-2.55.25-3.89a46 46 0 00-3.29-19.77.75.75 0 01.33-.93c3.74-2.14 5.26-5.67 5.77-9.74.42-3.34.15-6.93-.1-10.31l-.17-2.32v-.08c.14-3.34 0-8.1-.45-11.88-.23-1.9-.54-3.5-.92-4.56a3.02 3.02 0 00-.56-1.05 12.55 12.55 0 00-5.85 4.52 37.57 37.57 0 00-2.33 3.66c-.6 1-1.23 2.07-1.95 3.17a.75.75 0 01-1.1.16c-1.3-1.06-3.74-1.6-6.38-1.44-2.62.16-5.2 1-6.78 2.4a.75.75 0 01-1.23-.4c-.06-.22-.12-.58-.2-1.05a37.55 37.55 0 00-1.27-5.64 11.25 11.25 0 00-1.78-3.57c-.64-.77-1.32-1.17-2.1-1.18z" fill="#1C1C1C"/><path fill-rule="evenodd" clip-rule="evenodd" d="M651.04 548.07c-1.47.15-2.93.63-4.83 1.58a.75.75 0 11-.67-1.34c2-1 3.63-1.55 5.34-1.73 1.7-.18 3.42.02 5.56.45a.75.75 0 01-.3 1.47 16.6 16.6 0 00-5.1-.43z" fill="#1C1C1C"/><path d="M653.48 532.02c.56.28.88 0 1-.5.05-.22.03-.45-.01-.68-.44-2.49-1.02-7.18 1.45-10.65.84-1.18.66-1.93-.68-1.33-1.52.69-3.21 1.72-3.35 2.05-1 2.42-1.73 9.49 1.59 11.11zM657.08 532.68c5.21 3.28 3.42-8.94 7.02-13.49-.23-.77-1.86-1.15-2.78-.92-3.3.8-7.37 12.44-4.24 14.4zM646.96 557.01c5.28-.26 10.7 1.04 14.81 4.04 3.69 2.68 2.9 7.74-2.93 5.7-1.78-.62-3.33-1.79-5.2-2.11-9.32-2.4-14.48 6.27-25.3 3.4.39-.05 2.82-5.88 4.1-6.66 4.22-2.6 9.5-4.11 14.52-4.37zM665.93 576.95c4.72 3.2 2.84 7.5-2.68 7.17-7.37-.44-11.8-3.09-22.4-.84-6.01.51-13.33 8.08-18.4 6.15.68-3.76.78-6.87 2.8-12.3 3.8-10.13 34.33-4.51 40.68-.18zM616.87 653.48c1.31.18.47.95 1.45 1.3 1.09.41 2.02-.67 3.04-.15 2.32 1.18-4.7 3.24-3.2 6.76.51 1.28.99 2.23 1.83 2.25.12.08 1.22-9.03 5.42-8.48 3.78 1.24-2.43 6.6-.7 11.77-2.46.63-8.6-.1-12.17-2.7-2.95-3.82-.72-10.16 4.33-10.75zM615.63 649.35c.75-6.23-5.08-9.58-10.9-6.55-1.53.89-3.4 5.1-.23 5.28 1.34.08 2.34-.99 3.82-.76 2.8.43 3.9 3.67 7.3 2.03zM616.4 636.96a4.99 4.99 0 012.54 3.51c-1.2.58-2.13 2.92-2.76 4.01.91-2.08-.57-4.58-2.94-4.91-1.24-.18-2.47-.85-1.23-2.07 1.1-1.09 3-1.23 4.38-.54zM674.9 593.08c-.55-1.53-2.22-4.75-4.5-5.45-6.5-1.98-12.38 8.54-13.07 12.9-.81 5.04 7.98 3.78 8.89-1.17.88-4.84 10.18.47 8.68-6.28z" fill="#1C1C1C"/></g><defs><clipPath id="clip0"><path fill="#fff" d="M0 0h1440v663H0z"/></clipPath></defs></svg>