<svg xmlns="http://www.w3.org/2000/svg" width="39.873" height="12" viewBox="0 0 39.873 12">
  <g id="SIk5rq" transform="translate(-80.161 -1218.945)">
    <g id="Group_2216" data-name="Group 2216">
      <path id="Path_9364" data-name="Path 9364" d="M80.161,1224.33q2.485-2.454,4.973-4.908c.327-.322.594-.758,1.15-.231s.216.844-.16,1.22c-1.219,1.22-2.428,2.451-3.678,3.716a2.1,2.1,0,0,0,1.143.139q17.562.008,35.123.007c.441,0,.881.037,1.322.057v1.24c-.441.02-.883.057-1.324.057q-17.544,0-35.088,0H82.316c.623.637,1.083,1.109,1.546,1.578q1.121,1.135,2.244,2.267c.36.361.776.659.193,1.218-.546.525-.82.123-1.154-.211q-2.068-2.067-4.137-4.133c-.272-.27-.564-.519-.847-.778Z"/>
    </g>
  </g>
</svg>
