<svg width="197" height="141" viewBox="0 0 197 141" fill="none" xmlns="http://www.w3.org/2000/svg"><path d="M2.83 126.05c-.7-5.22 8.14-4.57 8.63-10.36 5.05-10.2 25.55 6.29 35.18 7.1 29.02 2.46 37.4 12.95-10.7 14.77-6.88-.59-31.87-2.23-33.1-11.51z" fill="#FA7B6A"/><path d="M52.26 63.29c-7.77 4.45-16.33 9.95-18.02 18.75-1.19 6.2-3.55 8.66-9.26 11.6-7.71 3.96-12.1 9.88-13.74 18.4-.71 3.75 2.95 3.9 5.5 2.04 5.43-3.95 10.16-8.82 15.76-12.5 5.21-3.42 11.07-5.74 16.31-9.1 16.53-8.2 19.78-24.88 3.45-29.2z" fill="#FA7B6A"/><path fill-rule="evenodd" clip-rule="evenodd" d="M51.89 62.64c.17-.1.37-.13.56-.08 4.2 1.11 7.23 3.04 9.09 5.5a11.09 11.09 0 012.06 8.47c-.88 6.05-6.04 12.44-14.42 16.61-2.56 1.64-5.27 3.03-7.94 4.4l-.25.14a88.07 88.07 0 00-8.08 4.53 81.88 81.88 0 00-7.87 6.1l-.94.79c-2.24 1.9-4.5 3.83-6.91 5.59-1.39 1-3.17 1.55-4.6 1.2-.74-.17-1.4-.6-1.8-1.33a3.94 3.94 0 01-.29-2.67c1.69-8.74 6.22-14.85 14.14-18.92 2.82-1.46 4.73-2.75 6.09-4.38 1.34-1.63 2.2-3.66 2.77-6.7.89-4.6 3.57-8.31 6.96-11.41 3.4-3.1 7.54-5.62 11.43-7.84zm.48 1.45c-3.8 2.19-7.71 4.6-10.9 7.5-3.25 2.96-5.69 6.4-6.5 10.59-.6 3.18-1.53 5.48-3.09 7.36-1.55 1.88-3.68 3.28-6.55 4.76-7.5 3.86-11.76 9.58-13.35 17.88-.16.83-.05 1.35.12 1.66.16.3.44.5.84.6.87.2 2.2-.12 3.37-.97a117 117 0 007.76-6.31 83.33 83.33 0 018.02-6.2 89.56 89.56 0 018.21-4.62l.23-.11a96.1 96.1 0 007.95-4.41c8.13-4.04 12.85-10.1 13.64-15.5a9.6 9.6 0 00-1.78-7.35c-1.57-2.08-4.17-3.82-7.97-4.88z" fill="#1C1C1C"/><path fill-rule="evenodd" clip-rule="evenodd" d="M15.34 111.46c.25.33.17.8-.16 1.05-1.04.76-2.2 1.34-3.43 1.72a.75.75 0 01-.45-1.43c1.08-.33 2.1-.84 3-1.5a.75.75 0 011.04.16zM15.8 108.01c.24.34.15.8-.2 1.04-1 .7-2.11 1.27-3.27 1.7a.75.75 0 01-.52-1.41c1.04-.38 2.04-.9 2.95-1.52a.75.75 0 011.04.19z" fill="#1C1C1C"/><path d="M168.62 58.07c7.4 1.82 17.96-3.62 23.71 3.34 1.5 1.8-1.8 3.89-4.15 4.73-4.48 1.6-10.79-.03-15.54.25-3.2.18-6.3 1.28-9.5 1.58-7.8.73-19.01-4.42-19.4-13.41-.7-17.2 18.74 2 24.88 3.51z" fill="#FA7B6A"/><path fill-rule="evenodd" clip-rule="evenodd" d="M145.04 50c-.41.97-.64 2.43-.56 4.52.19 4.16 2.87 7.5 6.57 9.75 3.7 2.24 8.3 3.3 12.03 2.95 1.44-.14 2.87-.44 4.34-.75l.32-.07c1.56-.33 3.19-.66 4.85-.76 1.8-.1 3.83.06 5.84.22l2.13.15c2.73.18 5.29.17 7.37-.58 1.12-.4 2.43-1.08 3.26-1.85.42-.38.65-.72.74-1 .06-.22.04-.43-.18-.69-2.63-3.18-6.37-3.59-10.61-3.33a85.02 85.02 0 00-3.4.3c-1.01.1-2.04.2-3.05.27-2.14.15-4.28.15-6.25-.33a13 13 0 01-3.05-1.37 76.25 76.25 0 01-3.76-2.34c-.3-.2-.63-.4-.94-.62-2.43-1.58-5.01-3.27-7.42-4.5a18.91 18.91 0 00-3.78-1.53 5.1 5.1 0 00-2.8-.1c-.67.23-1.25.72-1.65 1.66zm23.76 7.34c-.66-.16-1.56-.58-2.67-1.21a75.26 75.26 0 01-4.62-2.9c-2.42-1.6-5.07-3.33-7.55-4.6a20.38 20.38 0 00-4.1-1.65 6.55 6.55 0 00-3.63-.06 4.18 4.18 0 00-2.57 2.5c-.54 1.26-.77 2.96-.68 5.17.22 4.83 3.33 8.56 7.3 10.96a22.16 22.16 0 0012.94 3.16c1.53-.14 3.04-.46 4.5-.77l.33-.07c1.57-.34 3.1-.64 4.63-.73 1.69-.1 3.56.05 5.53.2l2.25.17c2.74.17 5.57.2 7.97-.66a11.84 11.84 0 003.77-2.16c.52-.47.97-1.03 1.16-1.69.21-.7.08-1.43-.45-2.07-3.12-3.77-7.54-4.13-11.86-3.86-1.09.06-2.19.17-3.27.28l-.18.01c-1.02.1-2.03.2-3.01.27-2.1.15-4.05.14-5.79-.29z" fill="#1C1C1C"/><path fill-rule="evenodd" clip-rule="evenodd" d="M183.94 62.48c.08-.41.48-.67.89-.58l.6.12c.85.18 1.63.33 2.21.59.4.16.75.39 1.04.72.3.33.48.73.6 1.2a.75.75 0 01-1.46.36 1.3 1.3 0 00-.27-.57c-.1-.12-.25-.23-.5-.34-.43-.18-1-.3-1.85-.47l-.69-.15a.75.75 0 01-.57-.88zM185.68 60.3c0-.42.33-.76.75-.76 1.09 0 2.26.53 3.19 1.15a6.52 6.52 0 012.16 2.19.75.75 0 11-1.35.67 5.16 5.16 0 00-1.64-1.61 4.7 4.7 0 00-2.36-.9.75.75 0 01-.75-.75z" fill="#1C1C1C"/><path d="M56.57 50.35C73.52 42.42 99.4 46.29 115 35.17c4.17-2.97 8.25-6.9 12.18-7 22.3-4.2 39.09 18.14 20.2 34.22-10.24 8.7-16.54 17.16-29.35 22.4-15.36 6.28-33.24 10.5-49.67 12.8-26.48 3.7-35.55-36.12-11.8-47.24z" fill="#F6F6F1"/><path d="M64.35 97.82c-13.38-.36-21.37-12.45-21.52-24.69 4.22 10.08 11.82 16.23 16.84 20.3 2.27 1.83 4 3.24 4.68 4.4zM136.16 72.68c-5.21 4.75-10.52 9-18.13 12.11-10.6 4.34-22.4 7.7-34.11 10.11 1.2-.94 3.3-1.91 6.37-2.77 6.03-1.7 14.13-7.93 21.78-13.82 10.45-8.04 20.05-15.42 22.3-9.62a40.7 40.7 0 001.79 3.99z" fill="#FA7B6A"/><path fill-rule="evenodd" clip-rule="evenodd" d="M152.1 38.1c-4.44-6.8-13.9-11.23-24.78-9.18a.77.77 0 01-.12 0c-1.74.05-3.6.94-5.6 2.3-1 .67-2 1.43-3.03 2.22l-.41.31c-.9.68-1.8 1.38-2.72 2.03-7.97 5.69-18.52 7.51-29.04 8.92l-3.64.48c-9.36 1.2-18.48 2.39-25.87 5.85C45.4 56.4 41.8 68.73 44.36 79.35c2.54 10.62 11.14 19.28 23.9 17.5 16.38-2.29 34.2-6.5 49.49-12.75 6.3-2.58 11.01-5.95 15.43-9.78 2.03-1.75 4-3.6 6.03-5.51l.55-.53c2.24-2.1 4.56-4.27 7.14-6.46l.49.57-.49-.57c4.61-3.92 7-8.19 7.7-12.27.69-4.09-.28-8.07-2.5-11.46zm3.97 11.7c-.77 4.5-3.37 9.05-8.2 13.17a185.03 185.03 0 00-7.08 6.4l-.56.53c-2.03 1.91-4.01 3.78-6.07 5.56-4.5 3.89-9.34 7.37-15.85 10.03-15.42 6.3-33.38 10.55-49.85 12.84-13.72 1.92-22.9-7.48-25.56-18.63-2.67-11.13 1.07-24.28 13.35-30.03 7.62-3.57 17-4.78 26.31-5.98l3.64-.48c10.56-1.41 20.74-3.2 28.37-8.65a95.8 95.8 0 002.67-2l.42-.32a63.84 63.84 0 013.1-2.27c2.03-1.37 4.17-2.47 6.34-2.54 11.4-2.12 21.46 2.5 26.25 9.84a17.35 17.35 0 012.72 12.53z" fill="#1C1C1C"/><path d="M167.44 74.5c4 4.75 9.22 8.88 15.37 9.73 3.98.56 10.5-.27 12.09 4.67 3.17 9.81-13.74 11.36-17.96 8.92-3.45-1.99-7.4-2.91-11.19-4.16-11.17-3.67-24.78-10.98-30.02-22.18-2.23-4.8-2.58-10.7.1-15.26 9.77-16.29 26.14 11.82 31.6 18.29z" fill="#F6F6F1"/><path fill-rule="evenodd" clip-rule="evenodd" d="M144.31 50.2a.75.75 0 011-.39c4.68 2.09 9.45 7.12 13.47 12.07 2.02 2.5 3.88 5 5.45 7.14l.52.7a92.78 92.78 0 003.26 4.3c4.51 5.35 8.36 8.56 14.9 9.47.83.11 1.73.17 2.7.23l.68.04c1.2.08 2.49.19 3.69.44 2.42.5 4.72 1.63 5.63 4.47.84 2.62.4 4.82-.9 6.54-1.27 1.68-3.3 2.84-5.5 3.56a21.12 21.12 0 01-6.91 1c-2.22-.06-4.32-.48-5.74-1.3-3.44-1.98-5.07-2.41-7.36-3.02a61.42 61.42 0 01-3.68-1.08c-12.32-4.04-24.05-10.26-30.45-22.55a.75.75 0 011.33-.7c6.13 11.77 17.4 17.83 29.59 21.83 1.37.45 2.47.74 3.47 1.01 2.38.63 4.23 1.13 7.85 3.21 1.11.64 2.92 1.04 5.02 1.1 2.09.04 4.38-.26 6.41-.93 2.04-.67 3.75-1.69 4.77-3.04.99-1.3 1.38-2.99.67-5.17-.67-2.1-2.33-3.01-4.5-3.46-1.1-.23-2.28-.33-3.49-.41l-.64-.04c-.98-.06-1.96-.13-2.85-.25-7.07-.98-11.22-4.52-15.84-9.98-.84-1-1.98-2.55-3.32-4.37l-.52-.71c-1.57-2.14-3.4-4.62-5.4-7.08-4.03-4.96-8.6-9.73-12.93-11.64a.75.75 0 01-.38-1z" fill="#1C1C1C"/><path fill-rule="evenodd" clip-rule="evenodd" d="M194.5 91.26a5.86 5.86 0 00-5.89-1.92.75.75 0 01-.38-1.45c2.67-.7 5.69.28 7.43 2.42a.75.75 0 11-1.16.95zM192.55 95.07a7.45 7.45 0 00-6-1.88.75.75 0 11-.21-1.49c2.6-.36 5.32.49 7.24 2.27a.75.75 0 01-1.03 1.1z" fill="#1C1C1C"/><path d="M59.37 65.2c-10.01 6.4-8.23 19.86-11.4 29.5-1.05 3.18-4.18 5.08-6.8 7.16a32.82 32.82 0 00-12.1 21.53 6.6 6.6 0 00.18 3.2c1.32 3.32 6.58 2.68 8.95.02 2.38-2.66 3.16-6.4 5.23-9.33 4.52-6.4 13.48-7.2 20.75-10.12 12.68-5.08 24.3-20.33 18.15-34.32-3.36-7.68-13.47-12.28-22.96-7.65z" fill="#F6F6F1"/><path fill-rule="evenodd" clip-rule="evenodd" d="M52.45 74.4c.33.25.4.72.15 1.05-.1.13-.25.46-.42 1.06-.16.57-.32 1.3-.48 2.16-.3 1.55-.58 3.44-.88 5.44l-.1.68c-.34 2.23-.7 4.56-1.1 6.59-.4 2-.87 3.8-1.45 4.96-.57 1.14-1.77 2.33-2.98 3.36-1.03.9-2.15 1.73-3.05 2.4l-.47.35a32.07 32.07 0 00-11.82 21.03 5.9 5.9 0 00.14 2.83c.5 1.26 1.76 1.85 3.35 1.78 1.6-.07 3.3-.82 4.34-1.98a17.24 17.24 0 002.61-4.38l.26-.56c.66-1.44 1.35-2.96 2.31-4.32 2.39-3.39 5.93-5.26 9.7-6.64a92.68 92.68 0 015.77-1.86 68.45 68.45 0 005.61-1.89l.28.7-.28-.7c7.25-2.9 14.15-9.22 17.41-16.67a.75.75 0 111.38.6c-3.43 7.84-10.64 14.42-18.23 17.47-1.85.74-3.8 1.34-5.74 1.93l-.56.17a91.83 91.83 0 00-5.13 1.66c-3.66 1.34-6.86 3.08-8.98 6.1a24.94 24.94 0 00-2.17 4.07l-.27.57a18.64 18.64 0 01-2.85 4.75 7.92 7.92 0 01-5.4 2.48c-1.95.09-3.98-.66-4.8-2.73a7.31 7.31 0 01-.24-3.56 33.57 33.57 0 0112.39-22.03l.01-.01.5-.37c.89-.67 1.96-1.47 2.96-2.33a11 11 0 002.6-2.9c.48-.95.92-2.57 1.32-4.58a142.83 142.83 0 001.2-7.2c.3-1.99.58-3.91.88-5.49.17-.87.34-1.66.52-2.3a5 5 0 01.66-1.54.75.75 0 011.05-.15z" fill="#1C1C1C"/><path fill-rule="evenodd" clip-rule="evenodd" d="M34.45 123.3c.41 0 .75.33.75.74a6.9 6.9 0 01-2.1 4.96.75.75 0 11-1.03-1.08 5.4 5.4 0 001.63-3.87c0-.41.33-.75.75-.75zM37.23 123.53c.42-.04.78.27.81.68a7.33 7.33 0 01-.86 4.12.75.75 0 11-1.32-.72c.55-1 .78-2.15.69-3.27a.75.75 0 01.68-.81z" fill="#1C1C1C"/><path d="M61.56 51.65c-4.5-3.35-10.66-.34-16.27 0-19.9 1.19-32.34-18.5-32.34-36.4-9.3 2.44-16.9 17.65-7.97 25.02-4.24 5.43-.77 13.7 6.04 14.57-8 6.5 4.8 13.65 11.33 10.64-3.32 6.72 10.55 8.95 13.68 2.15 2.21 3.9 7.74 5.47 11.68 3.33 3.8-2.07 5.93-6.87 10.14-7.87 4.88-1.16 10.3-6.57 3.71-11.44z" fill="#F6F6F1"/><path d="M58.57 62.9l-.01-.06c-.85-1.86-3.2-3.8-9.57-2.52l-.38.08c-10.96 2.19-25.2 5.04-34.22-3.99-2.08-2.08-3.85-2.4-5.3-2.04.61.23 1.26.39 1.93.47-8 6.5 4.8 13.65 11.33 10.64-3.32 6.73 10.55 8.95 13.68 2.15 2.21 3.9 7.74 5.47 11.68 3.33 1.63-.89 2.96-2.27 4.27-3.65 1.74-1.83 3.47-3.65 5.87-4.22.24-.05.48-.12.72-.2z" fill="#FA7B6A"/><path fill-rule="evenodd" clip-rule="evenodd" d="M13.41 14.66c.18.14.3.36.3.59 0 8.8 3.05 18.02 8.54 24.89 5.47 6.86 13.33 11.34 23 10.76a32.9 32.9 0 004.98-.76c1.17-.23 2.35-.46 3.51-.62 2.86-.38 5.78-.32 8.27 1.52a.75.75 0 11-.9 1.21c-2-1.5-4.42-1.6-7.17-1.24-1.11.15-2.24.37-3.4.6l-.83.16c-1.44.28-2.92.54-4.37.63-10.24.6-18.55-4.16-24.27-11.32-5.5-6.89-8.63-16.01-8.85-24.81-4 1.45-7.64 5.39-9.39 9.91-1.88 4.85-1.5 10.1 2.63 13.5.32.27.37.73.12 1.05-3.88 4.97-.7 12.57 5.54 13.37a.75.75 0 01.38 1.32c-1.88 1.52-2.4 2.96-2.26 4.16.14 1.25 1.02 2.5 2.44 3.54 1.4 1.04 3.26 1.81 5.15 2.14 1.9.33 3.75.2 5.2-.47a.75.75 0 01.99 1.02 3.51 3.51 0 00-.42 1.9c.05.52.27 1 .62 1.41.72.86 2.05 1.5 3.67 1.76 3.28.52 7.1-.6 8.45-3.57a.75.75 0 011.34-.05c2.01 3.54 7.09 4.98 10.67 3.04 1.52-.83 2.75-2.12 4.07-3.5l.67-.7c1.54-1.58 3.25-3.18 5.59-3.74a.75.75 0 11.35 1.46c-1.88.45-3.33 1.74-4.86 3.33l-.64.66c-1.3 1.37-2.72 2.86-4.46 3.8-3.93 2.14-9.26.9-12-2.57C34 72 29.9 72.88 26.65 72.37c-1.82-.3-3.54-1.04-4.58-2.28a4.06 4.06 0 01-.91-3.42 11.5 11.5 0 01-4.59.07 14.01 14.01 0 01-5.78-2.41c-1.6-1.18-2.83-2.75-3.04-4.58-.17-1.5.37-3.03 1.7-4.47-6.16-1.8-9.14-9.43-5.47-14.9-4.3-3.96-4.49-9.73-2.55-14.74 2.01-5.2 6.4-9.82 11.33-11.12a.75.75 0 01.65.14z" fill="#1C1C1C"/><path d="M17.93 50.57l-3.52.6 3.52-.6z" fill="#F6F6F1"/><path fill-rule="evenodd" clip-rule="evenodd" d="M18.67 50.44c.07.41-.2.8-.62.87l-3.51.6a.75.75 0 01-.26-1.47l3.52-.6c.4-.08.8.2.87.6z" fill="#1C1C1C"/><path d="M20.54 53.4c-1.04.96-2.07 1.94-3.1 2.91l3.1-2.92z" fill="#F6F6F1"/><path fill-rule="evenodd" clip-rule="evenodd" d="M21.09 52.88c.28.3.26.78-.04 1.06L19.5 55.4l-1.55 1.46a.75.75 0 11-1.02-1.1l1.54-1.45 1.56-1.46a.75.75 0 011.06.03z" fill="#1C1C1C"/><path d="M23.64 55.84a24.02 24.02 0 00-1.11 3.3l1.1-3.3z" fill="#F6F6F1"/><path fill-rule="evenodd" clip-rule="evenodd" d="M23.93 55.15c.38.16.56.6.4.98-.44 1.04-.8 2.1-1.07 3.2a.75.75 0 01-1.46-.37c.3-1.17.68-2.3 1.14-3.4.16-.39.6-.57.98-.41z" fill="#1C1C1C"/><path d="M102 15.5c11.62-.82 19.45-11.82 31.02-13.15 10.23-1.16 14.24 19.51-.65 17.4-3.78-.53-8.28.14-12.04.76-6.89 1.15-11.68 3.2-18.14-1.17-1.99-1.34-2.69-3.66-.19-3.84z" fill="#FA7B6A"/><path fill-rule="evenodd" clip-rule="evenodd" d="M138.77 5.38a6.52 6.52 0 00-5.67-2.28c-5.48.63-10.12 3.51-14.91 6.5l-.27.16c-4.83 3-9.84 6.06-15.87 6.49-.52.03-.74.18-.81.26-.06.06-.11.16-.08.37.07.48.55 1.23 1.45 1.84 5.13 3.47 9.05 2.7 14.3 1.67 1.04-.2 2.13-.42 3.3-.62 3.74-.62 8.35-1.32 12.26-.75 3.56.5 5.83-.37 7.18-1.78 1.36-1.42 1.91-3.53 1.72-5.77a10.65 10.65 0 00-2.6-6.09zm1.96 12.9c-1.77 1.85-4.58 2.77-8.47 2.22-3.65-.52-8.03.12-11.81.75-1.08.18-2.12.39-3.13.6-5.3 1.04-9.87 1.95-15.55-1.88-1.08-.74-1.94-1.82-2.1-2.88-.08-.56.04-1.16.49-1.62a2.68 2.68 0 011.79-.72c5.6-.4 10.3-3.24 15.18-6.27l.38-.23c4.7-2.93 9.6-5.97 15.42-6.64a8.01 8.01 0 016.95 2.76 12.14 12.14 0 012.98 6.97c.22 2.53-.38 5.12-2.13 6.94z" fill="#1C1C1C"/><path d="M170 28.62c2.81-2.29 15.17-4.72 17.5-.9.48.76.46 1.98-.97 1.98-6.2-1.08-11.8 6.23-16.54 4.3-.87-.34-.37-6.01 0-5.38z" fill="#FA7B6A"/><path fill-rule="evenodd" clip-rule="evenodd" d="M170.47 29.2l-.02.09a12.88 12.88 0 00-.03 4.08c.93.33 1.93.26 3.06-.1a24.24 24.24 0 003.88-1.77l.14-.07c2.66-1.4 5.77-3.03 9.08-2.48.22-.01.32-.06.36-.08a.16.16 0 00.08-.1c.04-.13.01-.4-.15-.66-.41-.68-1.35-1.18-2.82-1.45-1.44-.25-3.2-.24-5.04-.04-1.82.2-3.65.6-5.2 1.07a11.01 11.01 0 00-3.34 1.5zm-.01 4.26l-.01-.02v.02zm17.69-6.13c-.76-1.24-2.24-1.86-3.84-2.14-1.62-.3-3.55-.27-5.46-.06a30.7 30.7 0 00-5.48 1.13c-1.45.44-2.74.98-3.58 1.57a.83.83 0 00-.48.28l-.13.21c-.1.2-.16.46-.2.69a14.63 14.63 0 00-.16 4.01c.04.31.1.63.2.9.08.2.26.61.7.78 1.4.57 2.83.44 4.2 0a25.55 25.55 0 004.14-1.87c2.82-1.48 5.53-2.88 8.34-2.4l.13.02c.46 0 .88-.1 1.23-.32.35-.23.58-.56.69-.91.2-.67.01-1.4-.3-1.9z" fill="#1C1C1C"/><path d="M171.06 30.28c.55 5.8 12.32.45 15.75 2.68.64.43.98 1.4.48 1.98-5.05 1.47-10.59 2.51-15.32 4.9-4.13 2.1-7.48 5.67-11.9 7.08-16.66 5.3-29.2-4.58-36.4-18.6-5.07-9.87 5.65-20.86 14.4-24.36 6.27-2.51 13.88-2.67 20.53-2.75 6.08-.06 8.6 2.04 10.92 7.3 1.51 3.5 7.35 1.36 10.13 1.1 4.14-.38 6.33 1.77 8.04 5.5.58 1.27 1.15 2.78.54 4.04-2.36 5.02-12.49 9-17.17 11.13z" fill="#F6F6F1"/><path d="M179.97 36.92a43.94 43.94 0 00-8 2.92c-1.69.86-3.25 1.96-4.81 3.07-2.25 1.59-4.49 3.18-7.1 4-10.47 3.34-19.31.67-26.22-5.26l.53-2.54c15.33 3.84 22.04 2.01 29.07.1 4.24-1.15 8.6-2.33 15.02-2.33.54 0 1.04.01 1.5.04z" fill="#FA7B6A"/><path fill-rule="evenodd" clip-rule="evenodd" d="M165.04 3.48c-1.5-1.05-3.47-1.55-6.44-1.52-6.67.08-14.13.24-20.25 2.7-4.25 1.7-9 5.23-12.05 9.53-3.05 4.29-4.32 9.2-1.96 13.79 3.56 6.92 8.4 12.77 14.36 16.23 5.93 3.46 13.01 4.58 21.14 2 2.1-.67 3.96-1.86 5.86-3.19l1.01-.71c1.56-1.1 3.18-2.26 4.92-3.14 3.57-1.8 7.6-2.86 11.47-3.87 1.25-.33 2.49-.65 3.68-1 0-.05 0-.12-.02-.2a.94.94 0 00-.36-.51c-.3-.2-.73-.33-1.32-.4a11.7 11.7 0 00-2.06-.03c-.95.06-1.95.18-2.98.3-.7.09-1.4.17-2.11.24-1.72.17-3.48.24-4.86-.15-.71-.2-1.37-.53-1.87-1.08s-.8-1.26-.89-2.12a.75.75 0 01.44-.76 174 174 0 011.75-.78 95.6 95.6 0 007.65-3.67 30.9 30.9 0 004.58-3.01 10.11 10.11 0 002.82-3.3c.21-.44.24-.95.12-1.55a8.74 8.74 0 00-.66-1.86c-.84-1.82-1.75-3.15-2.88-4a6.06 6.06 0 00-4.4-1.06c-.56.05-1.24.18-2.04.33l-.44.09a26 26 0 01-3.09.44c-2.03.13-4.36-.18-5.32-2.41-1.15-2.58-2.29-4.27-3.8-5.33zm.86-1.23c1.85 1.3 3.13 3.28 4.31 5.95.55 1.27 1.89 1.64 3.85 1.52a24.56 24.56 0 003.33-.5c.8-.15 1.57-.3 2.2-.35 2.22-.2 4 .27 5.44 1.35 1.42 1.06 2.46 2.66 3.34 4.57.3.65.61 1.41.77 2.2a3.9 3.9 0 01-.23 2.48l-.68-.32.68.32a11.56 11.56 0 01-3.22 3.82 32.38 32.38 0 01-4.81 3.16 97.68 97.68 0 01-7.81 3.75l-1.17.52c.1.31.23.55.4.74.26.28.65.5 1.17.65 1.09.3 2.59.27 4.31.1.64-.06 1.32-.14 2-.22 1.08-.13 2.17-.26 3.15-.32.82-.05 1.62-.06 2.33.03.71.08 1.4.26 1.96.63.49.32.83.82.98 1.36.15.54.12 1.2-.34 1.74-.1.1-.22.19-.36.23-1.37.4-2.76.76-4.15 1.13-3.82 1-7.63 2-11.04 3.72-1.64.83-3.14 1.9-4.7 3l-1.05.74a23.57 23.57 0 01-6.27 3.38c-8.53 2.71-16.04 1.55-22.34-2.12-6.28-3.65-11.3-9.75-14.94-16.85-2.71-5.28-1.16-10.8 2.07-15.34a30.27 30.27 0 0112.7-10.06C144.23.7 151.98.54 158.59.46c3.13-.03 5.46.5 7.32 1.79z" fill="#1C1C1C"/><path d="M160.1 47.42c-22.22-1.17-37.72-15.8-37.72-21.95l-5.4 5.4c0 6.02 14.36 25.37 37.27 23.57l5.85-7.02z" fill="#F6DE05"/><path fill-rule="evenodd" clip-rule="evenodd" d="M122.66 24.78c.28.12.47.39.47.7 0 1.27.83 3.17 2.6 5.39a35.6 35.6 0 007.6 6.83 52.69 52.69 0 0026.81 8.97.75.75 0 01.54 1.23l-5.85 7.02a.75.75 0 01-.52.27c-11.69.92-21.2-3.57-27.76-9.03a38.23 38.23 0 01-7.6-8.4c-1.72-2.67-2.71-5.16-2.71-6.9 0-.2.08-.39.22-.53l5.39-5.39a.75.75 0 01.81-.16zm-4.91 6.38c.1 1.31.9 3.36 2.47 5.78A36.74 36.74 0 00127.5 45c6.28 5.22 15.3 9.48 26.37 8.7l4.7-5.64a54.14 54.14 0 01-26.1-9.14 37.07 37.07 0 01-7.92-7.13 14.43 14.43 0 01-2.7-4.76l-4.11 4.12zM182.81 8.91c.1 0 .2 0 .28.02a5.43 5.43 0 012.8 2c.75.98 1.28 2.22 1.38 3.53a.75.75 0 01-.97.78 21.73 21.73 0 01-6.8-3.52l-.02-.02h-.01c-.09-.07-.24-.2-.36-.35-.14-.16-.3-.43-.3-.79 0-.58.39-.93.69-1.1.3-.16.63-.23.88-.26l1.22-.14 1.22-.15z" fill="#1C1C1C"/><path d="M134.62 10.61c6.02 0 12.06.46 18.02 1.42 8.38 1.32 3.53 11.02-.74 14.4-3.21 2.54-7.02 4.28-10.06 7.03-1.74 1.56-3.22 3.45-5.18 4.72-7.54 3.98-14 1.64-10.2-6.62a43.64 43.64 0 002.66-11.09c.34-3.32.77-9.83 5.5-9.86z" fill="#F6F6F1"/><path d="M133.08 10.81c.21.36.1.82-.24 1.04-1.1.68-1.8 2.07-2.25 3.8-.39 1.51-.55 3.13-.68 4.45l-.04.45a44.39 44.39 0 01-2.72 11.33c-.92 1.99-1.17 3.53-1.01 4.65.15 1.09.7 1.82 1.53 2.27a6 6 0 003.58.44c1.5-.2 3.22-.76 5.03-1.71.9-.59 1.71-1.33 2.53-2.13l.74-.76c.58-.58 1.17-1.18 1.78-1.74a36.92 36.92 0 015.69-4.05 50.34 50.34 0 004.42-3.02 15.02 15.02 0 003.41-4.08c.97-1.68 1.6-3.45 1.63-4.97a.75.75 0 111.5.02c-.03 1.87-.79 3.9-1.83 5.7a16.49 16.49 0 01-3.78 4.51c-1.46 1.15-3.03 2.14-4.55 3.1l-.61.39c-1.74 1.1-3.4 2.19-4.87 3.52-.58.52-1.12 1.07-1.68 1.64l-.8.8a17.62 17.62 0 01-2.85 2.38 16.88 16.88 0 01-5.56 1.89c-1.7.22-3.27.05-4.5-.61a4.38 4.38 0 01-2.3-3.38c-.21-1.5.15-3.34 1.12-5.47a42.89 42.89 0 002.6-10.87l.05-.45c.13-1.3.3-3.05.72-4.68.47-1.81 1.3-3.7 2.9-4.7a.75.75 0 011.04.24zM169.48 16.82a1.74 1.74 0 100-3.47 1.74 1.74 0 000 3.47z" fill="#1C1C1C"/></svg>