<svg xmlns="http://www.w3.org/2000/svg" width="39.874" height="12" viewBox="0 0 39.874 12">
  <g id="SIk5rq" transform="translate(-1293.342 -1218.945)">
    <g id="Group_2215" data-name="Group 2215">
      <path id="Path_9363" data-name="Path 9363" d="M1333.216,1225.561q-2.487,2.454-4.973,4.907c-.328.323-.594.758-1.151.231s-.215-.844.16-1.219c1.22-1.22,2.429-2.452,3.678-3.716a2.081,2.081,0,0,0-1.142-.139q-17.562-.009-35.123-.007c-.441,0-.882-.037-1.323-.057v-1.24c.442-.02.883-.057,1.325-.057q17.544,0,35.088,0h1.306c-.624-.636-1.084-1.108-1.546-1.578q-1.121-1.135-2.245-2.267c-.36-.361-.775-.659-.192-1.218.546-.524.82-.123,1.154.211q2.068,2.067,4.137,4.134c.271.27.564.519.847.778Z"/>
    </g>
  </g>
</svg>
